<?xml version="1.0" encoding="UTF-8"?>
<svg version="1.1" viewBox="0 0 2048 434" width="1280" height="1280" xmlns="http://www.w3.org/2000/svg">
<path transform="translate(1319,151)" d="m0 0h28l15 12 17 13 16 13 13 10 42 33 11 8v-89h27v120h-28l-15-12-42-33-15-12-17-13-16-13-8-6-1 89h-27z" fill="#203580"/>
<path transform="translate(1912,151)" d="m0 0h136l-3 9-4 9-119 1-5 3-3 5-1 4v7l3 7 5 4 3 1 97 1 11 4 9 7 5 9 2 5v20l-4 10-8 9-11 5-5 1h-134l3-10 3-8 119-1 6-4 3-6v-11l-3-6-8-4-96-1-12-4-10-9-4-8-2-11 1-14 4-10 5-6 10-6z" fill="#203580"/>
<path transform="translate(27,151)" d="m0 0h135l-3 10-3 7-1 1-118 1-6 4-3 5v12l4 7 8 3 96 1 11 4 10 9 4 8 1 4v21l-4 9-6 8-12 6-4 1h-136l3-9 3-8 116-1 8-3 4-6 1-10-3-8-7-4-91-1-12-2-10-5-8-9-4-10v-20l4-10 7-8 12-6z" fill="#203580"/>
<path transform="translate(572,150)" d="m0 0h29l1 2-6 15-5 2h-100v33h84l-3 10-4 8h-77v34h111l-3 9-4 9h-131l-1-19v-69l1-33z" fill="#223681"/>
<path transform="translate(229,150)" d="m0 0h174l1 2-6 16-10 1h-61v102l-1 1h-27v-103h-76l-1-3 6-15z" fill="#233781"/>
<path transform="translate(1552,150)" d="m0 0h174l-1 5-5 13-5 1h-66v103h-27l-1-13v-62l1-28h-77l-1-2 6-16z" fill="#243882"/>
<path transform="translate(888,150)" d="m0 0 26 1v103h104l-3 10-3 8h-125v-121z" fill="#203580"/>
<path transform="translate(684,151)" d="m0 0h27v103h104l-3 10-4 8h-124z" fill="#203580"/>
<path transform="translate(1134,151)" d="m0 0h29l-2 5-16 30-13 23-16 30-13 23-5 9h-29l2-5 15-28 13-23 10-19 13-23 10-19z" fill="#203580"/>
<path transform="translate(1168,151)" d="m0 0h30l17 32 10 18 16 29 14 26 7 12v3h-28l-5-8-14-26-13-23-10-19-13-23-10-19z" fill="#203580"/>
<path transform="translate(1784,151)" d="m0 0h27v119l-1 1h-25l-1-1z" fill="#203580"/>
<path transform="translate(1287,132)" d="m0 0h8l5 3 4 6-1 9-4 5-4 2h-8l-6-4-3-9 3-8z" fill="#203580"/>
<path transform="translate(1258,314)" d="m0 0 7 2 5 5 1 9-4 7-7 3-9-2-4-5-1-2v-8l4-6 3-2z" fill="#213681"/>
<path transform="translate(1213,69)" d="m0 0h7l6 4 3 6-1 8-4 5-5 2h-7l-6-4-2-4v-9l3-5z" fill="#223781"/>
<path transform="translate(1112,69)" d="m0 0h8l5 3 3 4 1 8-3 6-4 3-9 1-6-3-3-5v-9l3-5z" fill="#223781"/>
<path transform="translate(1255,95)" d="m0 0h7l6 4 3 5v7l-4 6-5 3h-8l-5-3-3-5v-8l3-5 3-3z" fill="#223781"/>
<path transform="translate(1213,339)" d="m0 0 8 1 5 4 2 4v7l-3 5-5 4h-9l-5-3-3-5v-8l4-6z" fill="#203580"/>
<path transform="translate(1037,277)" d="m0 0h9l6 5 2 8-3 7-5 4-7 1-7-3-4-8 1-7 5-6z" fill="#213680"/>
<path transform="translate(1070,314)" d="m0 0h8l6 4 3 6-1 7-3 5-6 3-9-1-6-7v-9l4-6z" fill="#213680"/>
<path transform="translate(1027,178)" d="m0 0 9 3 4 7v7l-4 6-9 3-6-2-5-5-1-2v-8l4-6z" fill="#213680"/>
<path transform="translate(1038,132)" d="m0 0h7l6 4 3 6-1 8-4 5-4 2-9-1-6-5-1-2v-9l3-5z" fill="#203580"/>
<path transform="translate(1070,95)" d="m0 0h8l6 4 2 4v9l-5 6-5 2-8-1-5-5-2-5 1-7 5-6z" fill="#203580"/>
<path transform="translate(1162,348)" d="m0 0h9l6 5 2 5-1 8-5 5-5 2-7-1-5-4-2-4v-8l4-6z" fill="#203580"/>
<path transform="translate(1287,277)" d="m0 0h8l5 3 3 4 1 7-3 6-5 4-7 1-5-2-5-6v-10l4-5z" fill="#203580"/>
<path transform="translate(1116,339)" d="m0 0 8 2 4 5 1 2v8l-4 6-4 2h-9l-6-5-2-5 1-8 5-5z" fill="#213680"/>
<path transform="translate(1161,62)" d="m0 0h10l6 5 2 5-1 7-5 6-8 2-7-3-4-6v-8l4-6z" fill="#203580"/>
<path transform="translate(1258,355)" d="m0 0 7 1 4 5 1 5-3 6-4 3h-7l-5-4-1-2v-7l2-4z" fill="#233882"/>
<path transform="translate(1306,316)" d="m0 0 7 1 5 6v7l-4 5-9 1-4-2-3-6 1-6 5-5z" fill="#223681"/>
<path transform="translate(1193,38)" d="m0 0h8l5 4 1 2v7l-4 5-2 1h-8l-5-5-1-6 3-6z" fill="#213680"/>
<path transform="translate(1131,376)" d="m0 0h8l5 4 1 8-4 6-2 1h-8l-5-5-1-7 4-6z" fill="#203580"/>
<path transform="translate(979,207)" d="m0 0 7 1 4 4 1 2v7l-4 5-9 1-5-4-2-7 3-6z" fill="#203580"/>
<path transform="translate(1072,356)" d="m0 0 7 2 4 5v7l-4 5-2 1h-7l-6-5-1-6 3-6z" fill="#213680"/>
<path transform="translate(1021,316)" d="m0 0h8l5 5 1 6-4 7-2 1h-9l-5-6v-7l4-5z" fill="#203580"/>
<path transform="translate(992,149)" d="m0 0 6 1 5 5v8l-4 5-2 1h-7l-5-4-1-2v-8l5-5z" fill="#203580"/>
<path transform="translate(1021,98)" d="m0 0h8l5 4 1 2v7l-4 5-2 1h-8l-5-5-1-6 3-6z" fill="#203580"/>
<path transform="translate(1131,38)" d="m0 0h7l5 3 2 4-1 8-5 4h-8l-5-4-1-8 3-5z" fill="#203580"/>
<path transform="translate(1256,59)" d="m0 0h7l6 5 1 6-4 7-2 1h-9l-5-6v-7l4-5z" fill="#213680"/>
<path transform="translate(1069,59)" d="m0 0h7l6 5v9l-5 5h-9l-5-6v-7l4-5z" fill="#203580"/>
<path transform="translate(1304,98)" d="m0 0h8l5 5v8l-4 5-2 1h-7l-5-4-1-2v-7l4-5z" fill="#213680"/>
<path transform="translate(1195,375)" d="m0 0h7l5 4 1 2v7l-4 5-2 1h-7l-5-4-1-2v-7l4-5z" fill="#203580"/>
<path transform="translate(974,115)" d="m0 0 5 1 3 3v5l-4 4-7-1-2-3 1-7z" fill="#213680"/>
<path transform="translate(1306,358)" d="m0 0 7 1 2 3v5l-3 3-4 1-5-3-1-1 1-7z" fill="#213680"/>
<path transform="translate(1241,31)" d="m0 0 6 1 2 2v6l-4 4-6-1-3-6 3-5z" fill="#253982"/>
<path transform="translate(1241,390)" d="m0 0 6 1 2 3-1 7-3 2-6-1-2-2v-7z" fill="#213681"/>
<path transform="translate(1304,63)" d="m0 0h6l3 3v6l-3 3h-6l-3-3-1-5z" fill="#213681"/>
<path transform="translate(1382,243)" d="m0 0 5 2 2 2-1 7-3 2h-5l-4-5 2-6z" fill="#233882"/>
<path transform="translate(1355,115)" d="m0 0 5 1 3 3v5l-4 4-6-1-3-4 1-5z" fill="#203580"/>
<path transform="translate(1164,20)" d="m0 0 6 1 2 2v7l-4 3-6-1-2-3 1-7z" fill="#203580"/>
<path transform="translate(1024,358)" d="m0 0 5 2 2 2-1 7-3 2-6-1-3-5 2-5z" fill="#213681"/>
<path transform="translate(1163,401)" d="m0 0h6l3 3v5l-4 4h-5l-4-5 2-6z" fill="#213681"/>
<path transform="translate(1090,392)" d="m0 0 6 1 2 2v6l-5 4-6-2-1-2v-6z" fill="#213681"/>
<path transform="translate(973,306)" d="m0 0h5l3 3v6l-3 3-7-1-2-3 1-6z" fill="#203580"/>
<path transform="translate(1357,305)" d="m0 0 5 2 2 3-1 5-3 3-6-1-2-3v-5z" fill="#203580"/>
<path transform="translate(947,183)" d="m0 0 5 2 2 3-1 5-3 3-6-1-2-3v-5z" fill="#213681"/>
<path transform="translate(1086,31)" d="m0 0h6l3 3-1 7-3 2-5-1-3-4 1-5z" fill="#203580"/>
<path transform="translate(1024,63)" d="m0 0 5 2 2 2-1 6-3 2h-5l-3-4 1-5z" fill="#203580"/>
<path transform="translate(1209,427)" d="m0 0 4 1 1 3-2 3-4-1-1-4z" fill="#203580"/>
<path transform="translate(1120,427)" d="m0 0 5 1-1 5-4 1-2-4z" fill="#203580"/>
<path transform="translate(1400,294)" d="m0 0 5 1-1 5h-5l-1-4z" fill="#33468A"/>
<path transform="translate(1401,150)" d="m0 0 4 2-1 4-3 1-3-2 1-4z" fill="#263A83"/>
<path transform="translate(1292,397)" d="m0 0 5 1v4l-5 1-1-5z" fill="#203580"/>
<path transform="translate(1359,350)" d="m0 0h5v5l-5 1-1-5z" fill="#203580"/>
<path transform="translate(970,349)" d="m0 0 4 1 1 4-1 1h-5l-1-3z" fill="#203580"/>
<path transform="translate(970,78)" d="m0 0 5 1-1 5-5-1z" fill="#203580"/>
<path transform="translate(1036,31)" d="m0 0 5 1-1 5-5-1z" fill="#263B83"/>
<path transform="translate(1359,78)" d="m0 0 4 1-1 5-2 1-3-2 1-4z" fill="#203580"/>
<path transform="translate(1209)" d="m0 0 4 1v5h-5l-1-4z" fill="#2E4188"/>
<path transform="translate(929,294)" d="m0 0 4 1-1 5-5-1 1-4z" fill="#273B84"/>
<path transform="translate(1292,31)" d="m0 0 5 1 1 2-2 3-4-1-1-3z" fill="#2E4288"/>
<path transform="translate(1120)" d="m0 0h4l1 5-5 1-1-4z" fill="#203580"/>
<path transform="translate(1036,397)" d="m0 0 5 1-1 4-3 1-2-1z" fill="#203580"/>
</svg>
