<?xml version="1.0" encoding="UTF-8"?>
<svg version="1.1" xmlns="http://www.w3.org/2000/svg" width="800" height="321">
<path d="M0 0 C42.57 0 85.14 0 129 0 C130.65 4.62 132.3 9.24 134 14 C134.804375 11.875625 135.60875 9.75125 136.4375 7.5625 C138.875 1.125 138.875 1.125 140 0 C141.6575762 -0.09611419 143.31926986 -0.12187755 144.97962952 -0.12025452 C146.0580159 -0.12162918 147.13640228 -0.12300385 148.24746704 -0.12442017 C149.4407663 -0.12082489 150.63406555 -0.11722961 151.86352539 -0.11352539 C153.11212845 -0.11367142 154.36073151 -0.11381744 155.64717102 -0.1139679 C159.08090994 -0.11338891 162.51458938 -0.10835955 165.94831777 -0.10139394 C169.53312459 -0.09515998 173.11793213 -0.09455657 176.70274353 -0.09336853 C183.49550045 -0.09025534 190.28824135 -0.08204212 197.08099121 -0.07201904 C204.81242494 -0.06085753 212.54385942 -0.05534736 220.27529919 -0.05032361 C236.18354234 -0.03985949 252.09176848 -0.02205982 268 0 C268 7.59 268 15.18 268 23 C245.56 23 223.12 23 200 23 C199.67 18.71 199.34 14.42 199 10 C198.0409375 12.9390625 198.0409375 12.9390625 197.0625 15.9375 C195.125 21.875 195.125 21.875 194 23 C192.44379604 23.09588124 190.88323546 23.12188033 189.32408142 23.12025452 C187.80747169 23.12231651 187.80747169 23.12231651 186.26022339 23.12442017 C184.58248337 23.11902725 184.58248337 23.11902725 182.87084961 23.11352539 C181.70027512 23.11367142 180.52970062 23.11381744 179.32365417 23.1139679 C176.10479057 23.11338895 172.88596996 23.10835991 169.66711497 23.10139394 C166.306526 23.09515957 162.94593627 23.09455654 159.58534241 23.09336853 C153.21757658 23.09025546 146.84982784 23.0820424 140.48206955 23.07201904 C133.23430271 23.06085715 125.98653507 23.05534726 118.73876178 23.05032361 C103.82583141 23.03985977 88.91291805 23.02206031 74 23 C72.35 18.38 70.7 13.76 69 9 C68.67 13.62 68.34 18.24 68 23 C45.56 23 23.12 23 0 23 C0 15.41 0 7.82 0 0 Z " fill="#1E6FC0" transform="translate(488,128)"/>
<path d="M0 0 C82.17 0 164.34 0 249 0 C248 8 248 8 241 24 C161.47 24 81.94 24 0 24 C0 16.08 0 8.16 0 0 Z " fill="#1E6FC1" transform="translate(177,255)"/>
<path d="M0 0 C79.53 0 159.06 0 241 0 C248 16 248 16 249 23 C166.83 23 84.66 23 0 23 C0 15.41 0 7.82 0 0 Z " fill="#1E70C1" transform="translate(177,42)"/>
<path d="M0 0 C23.20999035 -0.09279262 46.41993566 -0.16407894 69.6300745 -0.20724869 C80.40815122 -0.22783035 91.1861102 -0.25586652 101.96411133 -0.30175781 C111.36365528 -0.34176057 120.76311393 -0.36746472 130.16274065 -0.37635398 C135.13486229 -0.38154605 140.10673997 -0.39365672 145.07878304 -0.42292023 C149.76965349 -0.45030218 154.46018216 -0.45839952 159.15112495 -0.45243073 C160.86221684 -0.45352087 162.57332154 -0.46133794 164.28434372 -0.4768219 C186.69671429 -0.66949827 206.86174929 6.03902252 224 21 C224 21.66 224 22.32 224 23 C150.08 23 76.16 23 0 23 C0 15.41 0 7.82 0 0 Z " fill="#1E6FC0" transform="translate(177,0)"/>
<path d="M0 0 C73.92 0 147.84 0 224 0 C224 0.66 224 1.32 224 2 C209.69156747 14.86710691 190.79298743 23.13379592 171.48294067 23.12025452 C170.74685825 23.12110894 170.01077583 23.12196337 169.25238788 23.12284368 C166.79730247 23.12448474 164.3422861 23.1189997 161.88720703 23.11352539 C160.12279766 23.1132432 158.35838818 23.11340188 156.59397888 23.1139679 C151.81141855 23.11425461 147.02888333 23.10837817 142.24632883 23.10139394 C137.24550917 23.0951395 132.24468893 23.09455494 127.24386597 23.09336853 C117.77737218 23.09026139 108.31088994 23.0820563 98.84440124 23.07201904 C88.06575049 23.06083877 77.28709918 23.05534262 66.50844407 23.05032361 C44.33895609 23.03987318 22.16947918 23.02208405 0 23 C0 15.41 0 7.82 0 0 Z " fill="#1E70C1" transform="translate(177,298)"/>
<path d="M0 0 C22.991546 -0.09255995 45.98304719 -0.16396001 68.97474194 -0.20724869 C79.64997382 -0.22788181 90.32508788 -0.25601679 101.00024414 -0.30175781 C110.30373837 -0.34160255 119.60714728 -0.36742735 128.91072446 -0.37635398 C133.83781419 -0.38157272 138.76465981 -0.39385431 143.69167137 -0.42292023 C148.32834063 -0.45005195 152.964665 -0.45844953 157.6014061 -0.45243073 C159.30379803 -0.45353197 161.00620138 -0.46149927 162.7085247 -0.4768219 C165.03248186 -0.49671536 167.35513581 -0.49194245 169.67912292 -0.48101807 C170.97977283 -0.48470524 172.28042273 -0.48839241 173.62048626 -0.49219131 C181.65654746 0.6781781 186.32921901 8.97852675 191 15 C195 20.39361702 195 20.39361702 195 23 C130.65 23 66.3 23 0 23 C0 15.41 0 7.82 0 0 Z " fill="#1E70C1" transform="translate(222,170)"/>
<path d="M0 0 C64.35 0 128.7 0 195 0 C193.11291987 4.71770032 191.28282314 7.6359031 188.09464931 11.46102238 C186.76800636 13.06907999 185.4814255 14.7117828 184.25386906 16.39669704 C180.98657039 20.37120899 178.46196579 22.67424983 173.35746574 23.8116169 C168.81687246 24.22398736 164.28308918 24.11477186 159.73022461 24.02172852 C157.98507825 24.01918685 156.23992228 24.02062072 154.49478149 24.02571106 C149.77767033 24.02828446 145.06263543 23.9755228 140.3460052 23.91254544 C135.40937234 23.85613123 130.47268733 23.85098498 125.53578186 23.84031677 C116.19643387 23.8123879 106.85803854 23.73859377 97.51910931 23.64817137 C86.88320406 23.54743548 76.24725235 23.49805576 65.6109885 23.45291245 C43.74011369 23.35893966 21.87015055 23.19890292 0 23 C0 15.41 0 7.82 0 0 Z " fill="#1E6FC0" transform="translate(222,128)"/>
<path d="M0 0 C51.48 0 102.96 0 156 0 C156 7.92 156 15.84 156 24 C104.52 24 53.04 24 0 24 C0 16.08 0 8.16 0 0 Z " fill="#1E6FC0" transform="translate(0,255)"/>
<path d="M0 0 C51.48 0 102.96 0 156 0 C156 7.59 156 15.18 156 23 C104.52 23 53.04 23 0 23 C0 15.41 0 7.82 0 0 Z " fill="#1E6FC0" transform="translate(0,298)"/>
<path d="M0 0 C51.48 0 102.96 0 156 0 C156 7.59 156 15.18 156 23 C104.52 23 53.04 23 0 23 C0 15.41 0 7.82 0 0 Z " fill="#1F70C1" transform="translate(0,42)"/>
<path d="M0 0 C51.48 0 102.96 0 156 0 C156 7.59 156 15.18 156 23 C104.52 23 53.04 23 0 23 C0 15.41 0 7.82 0 0 Z " fill="#1F70C1" transform="translate(0,0)"/>
<path d="M0 0 C47.19 0 94.38 0 143 0 C151 22 151 22 151 23 C101.17 23 51.34 23 0 23 C0 15.41 0 7.82 0 0 Z " fill="#1E70C1" transform="translate(444,42)"/>
<path d="M0 0 C47.19 0 94.38 0 143 0 C143 7.59 143 15.18 143 23 C93.5 23 44 23 -7 23 C-4.89140951 15.26850154 -2.53421037 7.60263112 0 0 Z " fill="#1E70C1" transform="translate(657,42)"/>
<path d="M0 0 C42.57 0 85.14 0 129 0 C136 21 136 21 136 23 C91.12 23 46.24 23 0 23 C0 15.41 0 7.82 0 0 Z " fill="#1E6FC0" transform="translate(444,0)"/>
<path d="M0 0 C42.24 0 84.48 0 128 0 C128 7.59 128 15.18 128 23 C83.45 23 38.9 23 -7 23 C-6 16 -6 16 0 0 Z " fill="#1E6FC0" transform="translate(672,0)"/>
<path d="M0 0 C37.62 0 75.24 0 114 0 C121 20 121 20 121 23 C81.07 23 41.14 23 0 23 C0 15.41 0 7.82 0 0 Z " fill="#1F6FC1" transform="translate(488,85)"/>
<path d="M0 0 C37.62 0 75.24 0 114 0 C114 7.59 114 15.18 114 23 C74.07 23 34.14 23 -7 23 C-4.89140951 15.26850154 -2.53421037 7.60263112 0 0 Z " fill="#1F6FC1" transform="translate(642,85)"/>
<path d="M0 0 C36.96 0 73.92 0 112 0 C112 7.92 112 15.84 112 24 C75.04 24 38.08 24 0 24 C0 16.08 0 8.16 0 0 Z " fill="#1E6FC0" transform="translate(688,255)"/>
<path d="M0 0 C36.96 0 73.92 0 112 0 C112 7.92 112 15.84 112 24 C75.04 24 38.08 24 0 24 C0 16.08 0 8.16 0 0 Z " fill="#1E6FC0" transform="translate(444,255)"/>
<path d="M0 0 C36.96 0 73.92 0 112 0 C112 7.59 112 15.18 112 23 C75.04 23 38.08 23 0 23 C0 15.41 0 7.82 0 0 Z " fill="#1E6FC0" transform="translate(688,298)"/>
<path d="M0 0 C36.96 0 73.92 0 112 0 C112 7.59 112 15.18 112 23 C75.04 23 38.08 23 0 23 C0 15.41 0 7.82 0 0 Z " fill="#1E6FC0" transform="translate(444,298)"/>
<path d="M0 0 C34.98 0 69.96 0 106 0 C103.89140951 7.73149846 101.53421037 15.39736888 99 23 C68.97 23 38.94 23 8 23 C4 13 4 13 0 0 Z " fill="#1E70C0" transform="translate(569,170)"/>
<path d="M0 0 C23.43 0 46.86 0 71 0 C74 16 74 16 74 23 C49.58 23 25.16 23 0 23 C0 15.41 0 7.82 0 0 Z " fill="#1F70C1" transform="translate(355,213)"/>
<path d="M0 0 C24.42 0 48.84 0 74 0 C73 15 73 15 71 23 C47.57 23 24.14 23 0 23 C0 15.41 0 7.82 0 0 Z " fill="#1F70C1" transform="translate(355,85)"/>
<path d="M0 0 C8.71844341 -0.02255338 17.43686759 -0.04091645 26.15533352 -0.05181217 C30.20325742 -0.05704041 34.25116041 -0.06413699 38.29907227 -0.07543945 C42.20235971 -0.08627043 46.10562699 -0.09227728 50.0089283 -0.09487724 C51.50133647 -0.09673111 52.99374348 -0.100351 54.48614311 -0.10573006 C56.56948139 -0.11294331 58.65273531 -0.11399083 60.73608398 -0.11352539 C61.92411118 -0.115746 63.11213837 -0.11796661 64.33616638 -0.12025452 C67 0 67 0 68 1 C68 8.59 68 16.18 68 24 C45.56 24 23.12 24 0 24 C0 16.08 0 8.16 0 0 Z " fill="#1F6FC0" transform="translate(44,127)"/>
<path d="M0 0 C25.08 0 50.16 0 76 0 C75 6 75 6 69 23 C48.87 23 28.74 23 8 23 C3.37931034 11.44827586 3.37931034 11.44827586 1.75 7 C1.41484375 6.0925 1.0796875 5.185 0.734375 4.25 C0 2 0 2 0 0 Z " fill="#1E6FC1" transform="translate(584,213)"/>
<path d="M0 0 C22.44 0 44.88 0 68 0 C68 7.59 68 15.18 68 23 C45.56 23 23.12 23 0 23 C0 15.41 0 7.82 0 0 Z " fill="#1E6FC0" transform="translate(688,213)"/>
<path d="M0 0 C22.44 0 44.88 0 68 0 C68 7.59 68 15.18 68 23 C45.56 23 23.12 23 0 23 C0 15.41 0 7.82 0 0 Z " fill="#1E6FC0" transform="translate(488,213)"/>
<path d="M0 0 C22.44 0 44.88 0 68 0 C68 7.59 68 15.18 68 23 C45.56 23 23.12 23 0 23 C0 15.41 0 7.82 0 0 Z " fill="#1F70C0" transform="translate(44,213)"/>
<path d="M0 0 C22.44 0 44.88 0 68 0 C68 7.59 68 15.18 68 23 C45.56 23 23.12 23 0 23 C0 15.41 0 7.82 0 0 Z " fill="#1E6FC0" transform="translate(688,170)"/>
<path d="M0 0 C22.44 0 44.88 0 68 0 C68 7.59 68 15.18 68 23 C45.56 23 23.12 23 0 23 C0 15.41 0 7.82 0 0 Z " fill="#1E6FC0" transform="translate(488,170)"/>
<path d="M0 0 C22.44 0 44.88 0 68 0 C68 7.59 68 15.18 68 23 C45.56 23 23.12 23 0 23 C0 15.41 0 7.82 0 0 Z " fill="#1E70C0" transform="translate(44,170)"/>
<path d="M0 0 C22.44 0 44.88 0 68 0 C68 7.59 68 15.18 68 23 C45.56 23 23.12 23 0 23 C0 15.41 0 7.82 0 0 Z " fill="#1F70C0" transform="translate(44,85)"/>
<path d="M0 0 C22.11 0 44.22 0 67 0 C67 7.59 67 15.18 67 23 C44.89 23 22.78 23 0 23 C0 15.41 0 7.82 0 0 Z " fill="#1F70C0" transform="translate(222,213)"/>
<path d="M0 0 C22.11 0 44.22 0 67 0 C67 7.59 67 15.18 67 23 C44.89 23 22.78 23 0 23 C0 15.41 0 7.82 0 0 Z " fill="#1F70C0" transform="translate(222,85)"/>
<path d="M0 0 C15.18 0 30.36 0 46 0 C44.87390617 6.75656299 44.87390617 6.75656299 43.625 10.26953125 C43.36203125 11.01267578 43.0990625 11.75582031 42.828125 12.52148438 C42.55484375 13.27751953 42.2815625 14.03355469 42 14.8125 C41.72671875 15.58787109 41.4534375 16.36324219 41.171875 17.16210938 C39.13686224 22.86313776 39.13686224 22.86313776 38 24 C35.78144736 24.08783542 33.56011504 24.10694609 31.33984375 24.09765625 C30.34314415 24.09553383 30.34314415 24.09553383 29.3263092 24.09336853 C27.19666101 24.08775518 25.06711661 24.07520054 22.9375 24.0625 C21.49674631 24.05748671 20.05599097 24.05292351 18.61523438 24.04882812 C15.07678898 24.03778145 11.53840461 24.02050792 8 24 C6.84798903 20.93978855 5.70450097 17.87645956 4.5625 14.8125 C4.23701172 13.94818359 3.91152344 13.08386719 3.57617188 12.19335938 C3.26357422 11.35224609 2.95097656 10.51113281 2.62890625 9.64453125 C2.34088135 8.87471924 2.05285645 8.10490723 1.75610352 7.31176758 C1 5 1 5 0 0 Z " fill="#1E70C1" transform="translate(599,255)"/>
<path d="M0 0 C5.28 0 10.56 0 16 0 C14.48526781 7.98676972 11.83197448 15.40122878 9 23 C8.34 23 7.68 23 7 23 C5.82847622 19.54329268 4.66360923 16.08437878 3.5 12.625 C3.16613281 11.64015625 2.83226562 10.6553125 2.48828125 9.640625 C2.17246094 8.69960938 1.85664062 7.75859375 1.53125 6.7890625 C1.23798828 5.91975098 0.94472656 5.05043945 0.64257812 4.15478516 C0 2 0 2 0 0 Z " fill="#1E6FC1" transform="translate(614,298)"/>
</svg>
